<?xml version="1.0" standalone="no"?>
<!DOCTYPE svg PUBLIC "-//W3C//DTD SVG 20010904//EN"
 "http://www.w3.org/TR/2001/REC-SVG-20010904/DTD/svg10.dtd">
<svg version="1.0" xmlns="http://www.w3.org/2000/svg"
 width="512.000000pt" height="512.000000pt" viewBox="0 0 512.000000 512.000000"
 preserveAspectRatio="xMidYMid meet">
<metadata>
Created by potrace 1.14, written by Peter Selinger 2001-2017
</metadata>
<g transform="translate(0.000000,512.000000) scale(0.100000,-0.100000)"
fill="#000000" stroke="none">
<path d="M1455 5113 c-57 -12 -146 -50 -197 -84 -102 -69 -170 -178 -185 -295
-10 -72 -9 -4313 1 -4369 10 -63 64 -163 115 -214 62 -63 117 -96 204 -125
l72 -25 1090 0 c927 0 1098 3 1145 15 191 51 330 203 348 381 4 37 7 1029 6
2203 -1 1664 -4 2145 -13 2180 -33 118 -125 230 -237 284 -115 57 -68 55
-1244 54 -597 0 -1094 -2 -1105 -5z m515 -247 c0 -103 11 -142 44 -153 29 -10
984 -11 1021 -1 53 14 59 29 61 141 l2 102 270 2 c234 1 277 -1 314 -15 102
-41 153 -86 189 -167 l22 -50 0 -2165 0 -2165 -23 -53 c-30 -69 -99 -131 -179
-159 l-62 -23 -1063 0 c-944 0 -1068 2 -1116 16 -92 27 -156 79 -198 159 l-25
50 0 2170 0 2170 23 53 c30 69 102 134 178 160 50 17 87 20 300 21 l242 2 0
-95z"/>
<path d="M1996 565 c-36 -33 -36 -86 0 -114 26 -21 36 -21 560 -21 l533 0 25
23 c38 34 38 75 1 112 l-24 25 -534 0 -534 0 -27 -25z"/>
</g>
</svg>
